<svg width="32" height="38" viewBox="0 0 32 38" fill="none" xmlns="http://www.w3.org/2000/svg">
<path fill-rule="evenodd" clip-rule="evenodd" d="M0.678558 24.538C2.98464 8.77756 4.65149 1.86487 7.41271 0.0977148C7.49214 1.74913 8.32114 3.16519 11.2904 4.57844C9.03485 7.71742 9.43623 11.6911 11.2404 15.2979C12.1628 16.1751 13.0805 17.0566 13.8683 18.0492C14.4657 18.8249 15.2516 19.3126 16.2106 19.5357C17.0589 19.3495 17.8136 18.93 18.4959 18.335C19.3464 17.3402 20.2352 16.4142 21.181 15.5908C22.2277 14.1391 22.8192 11.9735 22.7235 8.73044C22.7296 7.17706 22.2604 5.71015 21.0095 4.38545C23.1505 3.53298 24.8121 2.34286 24.8943 0.0405273C28.1837 2.7751 29.8894 12.3771 30.8929 25.0239L31.3214 25.7672C23.8456 42.2556 7.06013 41.0402 0.92892 24.8495C0.897939 24.7677 0.714283 24.6183 0.678558 24.538ZM30.5391 25.1991L28.6948 25.1984C23.5181 38.0432 7.06654 36.4883 3.35627 24.7593L1.70293 24.6918C5.37934 35.6377 14.015 36.8286 16.0904 36.7943C18.5763 36.7532 27.2067 35.6605 30.5391 25.1991ZM28.1611 25.0705L28.116 24.9704L26.0522 10.4744L27.0948 24.9704L26.6952 25.1419C21.4736 32.2647 11.976 32.9337 6.33414 24.9704L4.7358 24.9176L5.4927 10.4744L3.62179 24.2699L3.83808 24.9704C6.28619 31.257 11.8709 33.6326 15.9903 33.6213C20.2036 33.6099 25.5571 31.4013 28.1611 25.0705ZM25.9473 24.9704H24.6311L23.5956 16.0712L23.8527 24.9704H23.546C19.3673 29.4616 13.3883 29.8278 9.11916 24.9809L8.47777 24.9821L8.8348 16.0712L7.64942 24.9704L6.95167 24.9849C8.59996 27.1266 12.3993 30.1738 16.5188 30.1626C20.7321 30.1511 24.7859 26.9135 25.9473 24.9704ZM22.6266 24.9704L20.7824 24.9697C17.8234 26.3156 14.9846 26.2696 12.2542 24.9665L10.0867 24.9704C11.735 27.1121 14.3292 27.8815 16.4046 27.8471C18.8906 27.806 21.4367 26.5418 22.6266 24.9704ZM12.5794 23.1337C15.1507 24.1889 17.9961 24.1832 20.8459 23.0992L20.83 24.2949C18.3666 25.5226 15.4046 25.5768 12.5794 24.5558V23.1337ZM12.7757 21.1792C15.7546 21.3559 18.4235 20.5832 20.7739 18.8352L20.7229 22.3797C18.2595 23.6074 15.601 23.6223 12.7757 22.6013V21.1792Z" fill="url(#paint0_linear_41_322)"/>
<defs>
<linearGradient id="paint0_linear_41_322" x1="31.3213" y1="37.576" x2="0.652221" y2="0.0619285" gradientUnits="userSpaceOnUse">
<stop stop-color="#CA9000"/>
<stop offset="0.0196078" stop-color="#BB7F00"/>
<stop offset="0.0392157" stop-color="#AC6E00"/>
<stop offset="0.0509804" stop-color="#915900"/>
<stop offset="0.121569" stop-color="#B3872C"/>
<stop offset="0.25098" stop-color="#D6B659"/>
<stop offset="0.501961" stop-color="#FFF6AC"/>
<stop offset="0.678431" stop-color="#EBD683"/>
<stop offset="0.74902" stop-color="#D6B659"/>
<stop offset="0.870588" stop-color="#B4882D"/>
<stop offset="0.941176" stop-color="#915900"/>
<stop offset="0.94902" stop-color="#AC6E00"/>
<stop offset="1" stop-color="#CA9000"/>
</linearGradient>
</defs>
</svg>
